<svg width="19" height="19" viewBox="0 0 19 19" fill="none" xmlns="http://www.w3.org/2000/svg">
<g clip-path="url(#clip0_2295_293)">
<path d="M9.50027 0.0195312C4.2647 0.0195312 0.0195312 4.2647 0.0195312 9.50027C0.0195312 14.7358 4.2647 18.981 9.50027 18.981C14.7358 18.981 18.981 14.7358 18.981 9.50027C18.981 4.2647 14.7358 0.0195312 9.50027 0.0195312ZM9.50027 17.3727C5.15352 17.3727 1.62787 13.847 1.62787 9.50027C1.62787 7.61682 2.29025 5.88574 3.39493 4.53135L14.4692 15.6056C13.1148 16.7103 11.3837 17.3727 9.50027 17.3727ZM15.6056 14.4692L4.53135 3.39493C5.88574 2.29025 7.61682 1.62787 9.50027 1.62787C13.847 1.62787 17.3727 5.15352 17.3727 9.50027C17.3727 11.3837 16.7103 13.1148 15.6056 14.4692Z" fill="#E0232E"/>
</g>
<defs>
<clipPath id="clip0_2295_293">
<rect width="19" height="19" fill="white"/>
</clipPath>
</defs>
</svg>
