<svg width="21" height="19" viewBox="0 0 21 19" fill="none" xmlns="http://www.w3.org/2000/svg">
<g clip-path="url(#clip0_2295_298)">
<path fill-rule="evenodd" clip-rule="evenodd" d="M20.0642 2.31611C20.1317 2.38148 20.1852 2.45914 20.2217 2.54463C20.2582 2.63012 20.277 2.72178 20.277 2.81434C20.277 2.9069 20.2582 2.99855 20.2217 3.08404C20.1852 3.16954 20.1317 3.24719 20.0642 3.31256L9.92632 13.1644C9.85905 13.2299 9.77914 13.2819 9.69117 13.3174C9.60319 13.3529 9.50888 13.3712 9.41363 13.3712C9.31838 13.3712 9.22407 13.3529 9.13609 13.3174C9.04811 13.2819 8.9682 13.2299 8.90094 13.1644L4.55611 8.94219C4.48879 8.87676 4.43538 8.79909 4.39894 8.7136C4.3625 8.62812 4.34375 8.5365 4.34375 8.44397C4.34375 8.35144 4.3625 8.25982 4.39894 8.17433C4.43538 8.08885 4.48879 8.01117 4.55611 7.94574C4.62344 7.88032 4.70337 7.82842 4.79134 7.79301C4.8793 7.7576 4.97359 7.73937 5.0688 7.73937C5.16402 7.73937 5.2583 7.7576 5.34627 7.79301C5.43424 7.82842 5.51416 7.88032 5.58149 7.94574L9.41363 11.6712L19.0389 2.31611C19.1061 2.25058 19.186 2.19859 19.274 2.16311C19.362 2.12764 19.4563 2.10937 19.5516 2.10938C19.6468 2.10938 19.7411 2.12764 19.8291 2.16311C19.9171 2.19859 19.997 2.25058 20.0642 2.31611Z" fill="#2DC071"/>
<path fill-rule="evenodd" clip-rule="evenodd" d="M9.4138 2.11074C7.83837 2.11074 6.29832 2.56473 4.9884 3.41529C3.67848 4.26586 2.65752 5.4748 2.05463 6.88923C1.45174 8.30367 1.29399 9.86007 1.60134 11.3616C1.90869 12.8632 2.66734 14.2425 3.78133 15.325C4.89533 16.4076 6.31465 17.1448 7.85981 17.4435C9.40497 17.7422 11.0066 17.5889 12.4621 17.003C13.9176 16.4171 15.1616 15.425 16.0369 14.152C16.9121 12.8791 17.3793 11.3825 17.3793 9.85148C17.3793 9.66485 17.4556 9.48586 17.5914 9.35389C17.7272 9.22192 17.9114 9.14778 18.1035 9.14778C18.2955 9.14778 18.4797 9.22192 18.6155 9.35389C18.7513 9.48586 18.8276 9.66485 18.8276 9.85148C18.8273 11.8653 18.1433 13.8227 16.8816 15.4202C15.6199 17.0177 13.8511 18.166 11.8494 18.687C9.84771 19.208 7.72505 19.0726 5.8106 18.3018C3.89616 17.531 2.29693 16.1679 1.26092 14.4239C0.224912 12.6798 -0.189973 10.6523 0.0806088 8.6558C0.35119 6.65927 1.29212 4.80529 2.75746 3.38138C4.22281 1.95748 6.13069 1.04322 8.18521 0.780406C10.2397 0.517588 12.3261 0.920896 14.1207 1.92778C14.2072 1.97177 14.2837 2.03232 14.3456 2.10578C14.4074 2.17925 14.4533 2.26411 14.4805 2.35525C14.5077 2.4464 14.5157 2.54196 14.5039 2.63618C14.4921 2.73039 14.4609 2.82132 14.412 2.90349C14.3631 2.98565 14.2976 3.05737 14.2195 3.11431C14.1414 3.17125 14.0522 3.21224 13.9573 3.23482C13.8625 3.2574 13.7639 3.2611 13.6675 3.2457C13.5711 3.23029 13.479 3.1961 13.3966 3.14519C12.1861 2.46497 10.812 2.10808 9.4138 2.11074Z" fill="#2DC071"/>
</g>
<defs>
<clipPath id="clip0_2295_298">
<rect width="21" height="19" fill="white"/>
</clipPath>
</defs>
</svg>
