<svg width="23" height="23" viewBox="0 0 23 23" fill="none" xmlns="http://www.w3.org/2000/svg">
<path d="M20.6672 8.41915C20.6095 8.24934 20.5034 8.10013 20.3619 7.98994C20.2204 7.87975 20.0498 7.81341 19.871 7.7991L14.6419 7.38359L12.3791 2.37458C12.307 2.21324 12.1898 2.07622 12.0416 1.98003C11.8933 1.88385 11.7205 1.83262 11.5438 1.83252C11.3671 1.83242 11.1941 1.88347 11.0458 1.97949C10.8975 2.07551 10.7801 2.21241 10.7079 2.37366L8.44504 7.38359L3.21589 7.7991C3.0402 7.81302 2.87224 7.87726 2.7321 7.98413C2.59196 8.09101 2.48558 8.236 2.42569 8.40175C2.36579 8.5675 2.35492 8.747 2.39437 8.91877C2.43381 9.09054 2.52191 9.24731 2.64812 9.37032L6.51243 13.1374L5.14575 19.0554C5.10425 19.2345 5.11755 19.422 5.18393 19.5935C5.2503 19.765 5.36668 19.9125 5.51797 20.0171C5.66925 20.1216 5.84846 20.1782 6.03233 20.1796C6.21621 20.181 6.39626 20.1271 6.54912 20.0249L11.5435 16.6954L16.5378 20.0249C16.694 20.1286 16.8783 20.182 17.0658 20.1779C17.2533 20.1738 17.435 20.1124 17.5866 20.0019C17.7381 19.8914 17.8522 19.7372 17.9134 19.5599C17.9747 19.3827 17.9802 19.1909 17.9292 19.0105L16.2516 13.1402L20.4122 9.396C20.6846 9.15018 20.7846 8.76678 20.6672 8.41915Z" fill="#E77C40"/>
</svg>
