<svg width="23" height="23" viewBox="0 0 23 23" fill="none" xmlns="http://www.w3.org/2000/svg">
<path d="M6.53288 13.1374L5.1662 19.0554C5.12388 19.2346 5.13658 19.4224 5.20265 19.5943C5.26872 19.7662 5.38509 19.9141 5.53655 20.0188C5.68801 20.1235 5.86753 20.1801 6.05165 20.1812C6.23578 20.1823 6.41596 20.1278 6.56865 20.0249L11.563 16.6954L16.5573 20.0249C16.7136 20.1287 16.8978 20.1821 17.0853 20.178C17.2728 20.1739 17.4546 20.1124 17.6061 20.0019C17.7576 19.8915 17.8717 19.7372 17.933 19.56C17.9942 19.3827 17.9997 19.191 17.9488 19.0105L16.2712 13.1402L20.4317 9.39603C20.565 9.27605 20.6601 9.11963 20.7054 8.94614C20.7507 8.77264 20.7442 8.58967 20.6866 8.41986C20.629 8.25004 20.523 8.10083 20.3815 7.99067C20.24 7.88051 20.0693 7.81423 19.8906 7.80004L14.6614 7.38362L12.3986 2.3746C12.3264 2.21331 12.2091 2.07635 12.0609 1.98025C11.9126 1.88415 11.7397 1.83301 11.563 1.83301C11.3863 1.83301 11.2134 1.88415 11.0651 1.98025C10.9168 2.07635 10.7995 2.21331 10.7274 2.3746L8.46457 7.38362L3.23542 7.79913C3.05973 7.81305 2.89177 7.87729 2.75163 7.98416C2.61149 8.09104 2.50511 8.23602 2.44522 8.40178C2.38532 8.56753 2.37445 8.74703 2.4139 8.9188C2.45334 9.09057 2.54144 9.24734 2.66765 9.37035L6.53288 13.1374ZM9.14975 9.16947C9.31347 9.15658 9.47071 9.09987 9.60497 9.0053C9.73924 8.91073 9.8456 8.78179 9.91289 8.63198L11.563 4.98047L13.2131 8.63198C13.2804 8.78179 13.3867 8.91073 13.521 9.0053C13.6553 9.09987 13.8125 9.15658 13.9762 9.16947L17.6195 9.4584L14.6192 12.1587C14.3587 12.3936 14.2551 12.7549 14.3505 13.0925L15.4998 17.1146L12.073 14.8297C11.9226 14.7288 11.7455 14.6749 11.5644 14.6749C11.3832 14.6749 11.2062 14.7288 11.0558 14.8297L7.47488 17.2173L8.43797 13.0475C8.47329 12.8942 8.46855 12.7343 8.42421 12.5833C8.37988 12.4323 8.29744 12.2953 8.18482 12.1853L5.39826 9.46849L9.14975 9.16947Z" fill="#E77C40"/>
</svg>
