<svg width="16" height="16" viewBox="0 0 16 16" fill="none" xmlns="http://www.w3.org/2000/svg">
<g clip-path="url(#clip0_1892_2983)">
<path d="M11.0952 5.17508C11.0952 5.09651 11.0309 5.03223 10.9523 5.03223L9.77377 5.03758L7.99877 7.15366L6.22556 5.03937L5.0452 5.03401C4.96663 5.03401 4.90234 5.09651 4.90234 5.17687C4.90234 5.2108 4.91484 5.24294 4.93627 5.26973L7.25948 8.03758L4.93627 10.8037C4.91469 10.8298 4.90272 10.8626 4.90234 10.8965C4.90234 10.9751 4.96663 11.0394 5.0452 11.0394L6.22556 11.034L7.99877 8.91794L9.77198 11.0322L10.9506 11.0376C11.0291 11.0376 11.0934 10.9751 11.0934 10.8947C11.0934 10.8608 11.0809 10.8287 11.0595 10.8019L8.73984 8.0358L11.0631 5.26794C11.0845 5.24294 11.0952 5.20901 11.0952 5.17508Z" fill="#E43A44"/>
<path d="M8 0C3.58214 0 0 3.58214 0 8C0 12.4179 3.58214 16 8 16C12.4179 16 16 12.4179 16 8C16 3.58214 12.4179 0 8 0ZM8 14.6429C4.33214 14.6429 1.35714 11.6679 1.35714 8C1.35714 4.33214 4.33214 1.35714 8 1.35714C11.6679 1.35714 14.6429 4.33214 14.6429 8C14.6429 11.6679 11.6679 14.6429 8 14.6429Z" fill="#E43A44"/>
</g>
<defs>
<clipPath id="clip0_1892_2983">
<rect width="16" height="16" fill="white"/>
</clipPath>
</defs>
</svg>
