<svg width="30" height="37" viewBox="0 0 30 37" fill="none" xmlns="http://www.w3.org/2000/svg">
<path d="M0.30031 5.58826V35.2221C0.30031 35.9218 0.941789 36.4986 1.74364 36.4986H28.3223C29.1135 36.4986 29.7656 35.9313 29.7656 35.2221V1.27651C29.7656 0.576792 29.1241 0 28.3223 0H6.6189L0.30031 5.58826Z" fill="white"/>
<path d="M0.300559 5.58826V35.2221C0.300559 35.9218 0.942039 36.4986 1.74389 36.4986H3.79662C3.00546 36.4986 2.35329 35.9313 2.35329 35.2221V5.58826L8.67188 0H6.61915L0.300559 5.58826Z" fill="#DDDBDB"/>
<path d="M0.310321 5.58826H5.18558C5.97674 5.58826 6.62891 5.02092 6.62891 4.31175V0L0.310321 5.58826Z" fill="#C6C6C6"/>
<path d="M1.30448 37.0001H28.6957C29.4227 37.0001 30 36.4801 30 35.8465V26.1924H0.000144139V35.8465C-0.0105472 36.4801 0.577471 37.0001 1.30448 37.0001Z" fill="#00B564"/>
<path d="M19.4 0.00878906H21.8911L23.8797 2.89275L25.8683 0.00878906H28.3594L25.1306 4.71768L28.3594 9.42656H25.8683L23.8797 6.53315L21.8911 9.42656H19.4L22.6288 4.71768L19.4 0.00878906Z" fill="#00B564"/>
<path d="M18.7769 7.09277V15.5555H28.3242V24.6802H3.70208V7.09277H18.7769ZM8.4811 7.75467H4.45047V11.3194H8.4811V7.75467ZM14.0085 16.2174V19.7727H18.0391V16.2174H14.0085ZM9.22949 19.7727H13.2601V16.2174H9.22949V19.7727ZM13.2601 15.5555V12.0002H9.22949V15.5555H13.2601ZM13.2601 7.75467H9.22949V11.3194H13.2601V7.75467ZM18.0285 7.75467H13.9978V11.3194H18.0285V7.75467ZM18.0285 11.9908H13.9978V15.5461H18.0285V11.9908ZM22.8075 16.2174H18.7769V19.7727H22.8075V16.2174ZM27.5865 16.2174H23.5559V19.7822H27.5865V16.2174ZM23.5559 24.0183H27.5865V20.4535H23.5559V24.0183ZM18.7769 24.0183H22.8075V20.4535H18.7769V24.0183ZM14.0085 24.0183H18.0391V20.4535H14.0085V24.0183ZM9.22949 24.0183H13.2601V20.4535H9.22949V24.0183ZM4.45047 24.0183H8.4811V20.4535H4.45047V24.0183ZM4.45047 19.7727H8.4811V16.2174H4.45047V19.7727ZM8.4811 15.5555V12.0002H4.45047V15.5555H8.4811Z" fill="#DDDBDB"/>
<path d="M23.5352 34.267V33.3876H22.6691L21.2365 31.6005L22.6691 29.9458H23.471V29.0664H20.4026V29.9458H20.9692L20.146 30.863L19.3976 29.9458H19.9322V29.0664H17.2914V29.9458H18.104L19.4938 31.6478L17.9543 33.3782H17.1097V34.2575H20.2636V33.3782H19.6756L20.563 32.3569L21.4076 33.3782H20.8089V34.2575H23.5352V34.267Z" fill="white"/>
<path d="M16.8711 34.2683V33.3889H16.0265V29.9565H16.8711V29.0771H13.653V29.9565H14.5083V33.3889H12.7763V31.7814H11.6323V34.2588H16.8711V34.2683Z" fill="white"/>
<path d="M11.1369 34.2677V32.4995H10.1426C10.1319 32.821 10.0357 33.0574 9.85395 33.2181C9.67219 33.3694 9.46905 33.4451 9.23384 33.4451C9.05209 33.4451 8.90243 33.3883 8.77414 33.2749C8.64584 33.1614 8.59236 33.0385 8.59236 32.8872C8.59236 32.7264 8.65653 32.5941 8.77414 32.49C8.89174 32.386 9.11626 32.2631 9.437 32.1213C10.1212 31.8281 10.581 31.5729 10.8162 31.3554C11.0621 31.1379 11.1797 30.8353 11.1797 30.4571C11.1797 30.0032 11.0193 29.6534 10.6986 29.4075C10.3778 29.1617 10.0143 29.0293 9.60804 29.0293C9.13762 29.0293 8.78482 29.19 8.52823 29.5115V29.0766H7.53393V30.6557H8.52823C8.56031 30.4098 8.65652 30.2207 8.81689 30.0883C8.97726 29.9559 9.15901 29.8898 9.37284 29.8898C9.53321 29.8898 9.67221 29.9276 9.78981 30.0032C9.90742 30.0789 9.96086 30.1829 9.96086 30.3058C9.96086 30.4098 9.91809 30.5138 9.82187 30.6084C9.72565 30.7029 9.45838 30.8353 9.00934 31.015C8.571 31.1852 8.23956 31.3365 8.01504 31.4783C7.77983 31.6201 7.59807 31.7998 7.46978 32.0173C7.33079 32.2347 7.26665 32.49 7.26665 32.7832C7.26665 33.2938 7.43771 33.6815 7.76914 33.9368C8.11126 34.1921 8.50683 34.3244 8.96656 34.3244C9.47975 34.3244 9.87533 34.1542 10.1533 33.8233V34.2677H11.1369V34.2677Z" fill="white"/>
</svg>
