<svg width="16" height="16" viewBox="0 0 16 16" fill="none" xmlns="http://www.w3.org/2000/svg">
<path d="M13.332 2C14.0684 2 14.6654 2.59695 14.6654 3.33333V12.6667C14.6654 13.4031 14.0684 14 13.332 14H2.66536C1.92898 14 1.33203 13.4031 1.33203 12.6667V3.33333C1.33203 2.59695 1.92898 2 2.66536 2H13.332ZM13.332 3.33333H2.66536V10.067L5.99523 6.73713C6.32067 6.41171 6.8483 6.41171 7.17376 6.73713L9.8843 9.44773L10.7093 8.6228C11.0347 8.29733 11.5624 8.29733 11.8878 8.6228L13.332 10.067V3.33333ZM10.332 4.66667C10.8843 4.66667 11.332 5.11438 11.332 5.66667C11.332 6.21895 10.8843 6.66667 10.332 6.66667C9.77976 6.66667 9.33203 6.21895 9.33203 5.66667C9.33203 5.11438 9.77976 4.66667 10.332 4.66667Z" fill="#09244B"/>
</svg>
