<svg width="36" height="35" viewBox="0 0 36 35" fill="none" xmlns="http://www.w3.org/2000/svg">
<g clip-path="url(#clip0_1960_3789)">
<path d="M13.6263 17.5003C16.4409 17.5003 18.7305 15.2107 18.7305 12.3962C18.7305 9.58158 16.4409 7.29199 13.6263 7.29199C10.8117 7.29199 8.52214 9.58158 8.52214 12.3962C8.52214 15.2107 10.8117 17.5003 13.6263 17.5003ZM13.6263 10.2087C14.8367 10.2087 15.8138 11.1857 15.8138 12.3962C15.8138 13.6066 14.8367 14.5837 13.6263 14.5837C12.4159 14.5837 11.4388 13.6066 11.4388 12.3962C11.4388 11.1857 12.4159 10.2087 13.6263 10.2087ZM13.6263 20.0524C10.2138 20.0524 3.41797 21.7587 3.41797 25.1566V26.2503C3.41797 27.0524 4.07422 27.7087 4.8763 27.7087H22.3763C23.1784 27.7087 23.8346 27.0524 23.8346 26.2503V25.1566C23.8346 21.7587 17.0388 20.0524 13.6263 20.0524ZM6.83047 24.792C8.05547 23.9462 11.0159 22.9691 13.6263 22.9691C16.2367 22.9691 19.1971 23.9462 20.4221 24.792H6.83047ZM23.893 20.1399C25.5846 21.3649 26.7513 22.9982 26.7513 25.1566V27.7087H31.1263C31.9284 27.7087 32.5846 27.0524 32.5846 26.2503V25.1566C32.5846 22.2107 27.4805 20.5337 23.893 20.1399ZM22.3763 17.5003C25.1909 17.5003 27.4805 15.2107 27.4805 12.3962C27.4805 9.58158 25.1909 7.29199 22.3763 7.29199C21.5888 7.29199 20.8596 7.48158 20.1888 7.80241C21.1076 9.10033 21.6471 10.6899 21.6471 12.3962C21.6471 14.1024 21.1076 15.692 20.1888 16.9899C20.8596 17.3107 21.5888 17.5003 22.3763 17.5003Z" fill="current"/>
</g>
<defs>
<clipPath id="clip0_1960_3789">
<rect width="35" height="35" fill="white" transform="translate(0.5)"/>
</clipPath>
</defs>
</svg>
