<svg width="35" height="35" viewBox="0 0 35 35" fill="none" xmlns="http://www.w3.org/2000/svg">
<path d="M16.8323 9.62948C17.2126 9.2872 17.79 9.2872 18.1703 9.62948L24.4619 15.292C24.6726 15.4816 24.793 15.7518 24.793 16.0353V25.9795C24.793 26.5318 24.3453 26.9795 23.793 26.9795H22.8763C22.324 26.9795 21.8763 26.5318 21.8763 25.9795V19.2295C21.8763 18.6772 21.4286 18.2295 20.8763 18.2295H14.1263C13.574 18.2295 13.1263 18.6772 13.1263 19.2295V25.9795C13.1263 26.5318 12.6786 26.9795 12.1263 26.9795H11.2096C10.6574 26.9795 10.2096 26.5318 10.2096 25.9795V16.0353C10.2096 15.7518 10.33 15.4816 10.5407 15.292L16.8323 9.62948ZM18.1703 5.70656C17.79 5.36429 17.2126 5.36429 16.8323 5.70656L4.85496 16.4862C4.17374 17.0993 4.60744 18.2295 5.52393 18.2295H6.29297C6.84525 18.2295 7.29297 18.6772 7.29297 19.2295V28.8962C7.29297 29.4484 7.74068 29.8962 8.29297 29.8962H15.043C15.5953 29.8962 16.043 29.4484 16.043 28.8962V22.1462C16.043 21.5939 16.4907 21.1462 17.043 21.1462H17.9596C18.5119 21.1462 18.9596 21.5939 18.9596 22.1462V28.8962C18.9596 29.4484 19.4074 29.8962 19.9596 29.8962H26.7096C27.2619 29.8962 27.7096 29.4484 27.7096 28.8962V19.2295C27.7096 18.6772 28.1574 18.2295 28.7096 18.2295H29.4787C30.3952 18.2295 30.8289 17.0993 30.1476 16.4862L18.1703 5.70656Z" fill="current"/>
</svg>
