<svg width="35" height="35" viewBox="0 0 35 35" fill="none" xmlns="http://www.w3.org/2000/svg">
<g clip-path="url(#clip0_1960_3794)">
<path d="M17.4987 8.60384C19.1904 8.60384 20.5612 9.97467 20.5612 11.6663C20.5612 13.358 19.1904 14.7288 17.4987 14.7288C15.807 14.7288 14.4362 13.358 14.4362 11.6663C14.4362 9.97467 15.807 8.60384 17.4987 8.60384ZM17.4987 21.7288C21.8299 21.7288 26.3945 23.858 26.3945 24.7913V26.3955H8.60286V24.7913C8.60286 23.858 13.1674 21.7288 17.4987 21.7288ZM17.4987 5.83301C14.2758 5.83301 11.6654 8.44342 11.6654 11.6663C11.6654 14.8893 14.2758 17.4997 17.4987 17.4997C20.7216 17.4997 23.332 14.8893 23.332 11.6663C23.332 8.44342 20.7216 5.83301 17.4987 5.83301ZM17.4987 18.958C13.6049 18.958 5.83203 20.9122 5.83203 24.7913V27.708C5.83203 28.5101 6.48828 29.1663 7.29036 29.1663H27.707C28.5091 29.1663 29.1654 28.5101 29.1654 27.708V24.7913C29.1654 20.9122 21.3924 18.958 17.4987 18.958Z" fill="current
"/>
</g>
<defs>
<clipPath id="clip0_1960_3794">
<rect width="35" height="35" fill="white"/>
</clipPath>
</defs>
</svg>
