<svg width="42" height="43" viewBox="0 0 42 43" fill="none" xmlns="http://www.w3.org/2000/svg">
<g clip-path="url(#clip0_1960_3791)">
<path d="M21 12.75C20.0375 12.75 19.25 13.5375 19.25 14.5V19.75H14C13.0375 19.75 12.25 20.5375 12.25 21.5C12.25 22.4625 13.0375 23.25 14 23.25H19.25V28.5C19.25 29.4625 20.0375 30.25 21 30.25C21.9625 30.25 22.75 29.4625 22.75 28.5V23.25H28C28.9625 23.25 29.75 22.4625 29.75 21.5C29.75 20.5375 28.9625 19.75 28 19.75H22.75V14.5C22.75 13.5375 21.9625 12.75 21 12.75ZM21 4C11.34 4 3.5 11.84 3.5 21.5C3.5 31.16 11.34 39 21 39C30.66 39 38.5 31.16 38.5 21.5C38.5 11.84 30.66 4 21 4ZM21 35.5C13.2825 35.5 7 29.2175 7 21.5C7 13.7825 13.2825 7.5 21 7.5C28.7175 7.5 35 13.7825 35 21.5C35 29.2175 28.7175 35.5 21 35.5Z" fill="current"/>
</g>
<defs>
<clipPath id="clip0_1960_3791">
<rect width="42" height="42" fill="white" transform="translate(0 0.5)"/>
</clipPath>
</defs>
</svg>
